<?xml version="1.0" encoding="utf-8"?>
<!-- Generator: Adobe Illustrator 19.2.1, SVG Export Plug-In . SVG Version: 6.00 Build 0)  -->
<svg version="1.1" id="layer" xmlns="http://www.w3.org/2000/svg" xmlns:xlink="http://www.w3.org/1999/xlink" x="0px" y="0px"
	 viewBox="0 0 652 652" style="enable-background:new 0 0 652 652;" xml:space="preserve">
<style type="text/css">
	.st0{fill:#DA011E;}
</style>
<g>
	<path class="st0" d="M20.5,352.6l2.3-9.1h17c2.7,0,4.7-0.3,6.1-1c1.4-0.7,2.2-1.7,2.6-3l12.3-48.7h11.7l-12.3,48.7
		c-0.5,1.9-1.3,3.7-2.4,5.3c-1.1,1.6-2.6,3-4.5,4.2c-1.9,1.2-4.1,2.1-6.7,2.7c-2.6,0.6-5.6,1-9,1H20.5z"/>
	<path class="st0" d="M500,299.9h40.8c5.2,0,7.2,1.9,6.3,5.7l-1.2,4.6c-0.1,0.4-0.2,0.7-0.3,1h11.7c0.1-0.4,0.2-0.7,0.3-1.1l1.1-4.4
		c0.6-2.2,0.7-4.2,0.5-6.1c-0.2-1.8-1-3.4-2.2-4.7c-1.2-1.3-3-2.3-5.2-3.1c-2.3-0.7-5.2-1.1-8.7-1.1h-52.5l-5.2,20.4h11.7L500,299.9
		z"/>
	<polygon class="st0" points="475,352.6 486.7,352.6 492.8,328.3 481.1,328.3 	"/>
	<polygon class="st0" points="533.7,352.6 546.2,352.6 539.6,328.3 527.1,328.3 	"/>
	<path class="st0" d="M581.1,309.8c0,0-15.4,5.6-15.5,5.6c-4.9,0-154.2,0-154.2,0l-2.1,9.2l156.7,0l15.1,6.1l39.4-10.4L581.1,309.8z
		"/>
	<polygon class="st0" points="478.4,299.9 480.7,290.7 417.1,290.7 414.8,299.9 426.5,299.9 	"/>
	<polygon class="st0" points="401.5,352.6 465.1,352.6 467.4,343.4 415.5,343.4 403.8,343.4 	"/>
	<polygon class="st0" points="116.2,302.8 121,315.3 133.5,315.3 123.4,290.7 114.9,290.7 92.3,315.3 104.8,315.3 	"/>
	<polygon class="st0" points="124.8,324.9 135.5,352.6 148.6,352.6 137.4,324.9 	"/>
	<polygon class="st0" points="58.2,352.6 71.2,352.6 96.1,324.9 83.5,324.9 	"/>
	<polygon class="st0" points="382.6,352.6 395.8,352.6 384.5,324.9 371.9,324.9 	"/>
	<polygon class="st0" points="305.3,352.6 318.3,352.6 343.3,324.9 330.7,324.9 	"/>
	<polygon class="st0" points="363.3,302.8 368.2,315.3 380.6,315.3 370.6,290.7 362.1,290.7 339.5,315.3 352,315.3 	"/>
	<path class="st0" d="M174.1,304.1c0.7-2.8,4.5-4.2,11.4-4.2h48.4l2.3-9.1h-48.4c-14.7,0-23.2,4.4-25.4,13.3l-8.9,35.1
		c-2.3,8.9,4,13.3,18.7,13.3h27.3c14.7,0,23.2-4.4,25.4-13.2l3.6-14.4h0l2.5-9.6c-27.9,0-29.3,0-29.3,0l-2.3,9.6h17.3l-3.7,14.4
		c-0.7,2.7-4.5,4-11.4,4h-27.3c-6.9,0-10-1.4-9.3-4.2L174.1,304.1z"/>
	<path class="st0" d="M255.8,304.1c0.7-2.8,4.5-4.2,11.4-4.2h48.4l2.3-9.1h-48.4c-14.7,0-23.2,4.4-25.4,13.3l-8.9,35.1
		c-2.3,8.9,4,13.3,18.7,13.3h27.3c14.7,0,23.2-4.4,25.4-13.2l3.6-14.4h0l2.5-9.6c-27.9,0-29.3,0-29.3,0l-2.3,9.6h17.3l-3.7,14.4
		c-0.7,2.7-4.5,4-11.4,4h-27.3c-6.9,0-10-1.4-9.3-4.2L255.8,304.1z"/>
</g>
</svg>
